<?xml version="1.0" encoding="utf-8" standalone="no"?>
<!DOCTYPE svg PUBLIC "-//W3C//DTD SVG 1.1//EN"
  "http://www.w3.org/Graphics/SVG/1.1/DTD/svg11.dtd">
<svg xmlns:xlink="http://www.w3.org/1999/xlink" width="144pt" height="126pt" viewBox="0 0 144 126" xmlns="http://www.w3.org/2000/svg" version="1.1">
 <metadata>
  <rdf:RDF xmlns:dc="http://purl.org/dc/elements/1.1/" xmlns:cc="http://creativecommons.org/ns#" xmlns:rdf="http://www.w3.org/1999/02/22-rdf-syntax-ns#">
   <cc:Work>
    <dc:type rdf:resource="http://purl.org/dc/dcmitype/StillImage"/>
    <dc:date>2025-07-21T09:38:18.273517</dc:date>
    <dc:format>image/svg+xml</dc:format>
    <dc:creator>
     <cc:Agent>
      <dc:title>Matplotlib v3.10.3, https://matplotlib.org/</dc:title>
     </cc:Agent>
    </dc:creator>
   </cc:Work>
  </rdf:RDF>
 </metadata>
 <defs>
  <style type="text/css">*{stroke-linejoin: round; stroke-linecap: butt}</style>
 </defs>
 <g id="figure_1">
  <g id="patch_1">
   <path d="M 0 126 
L 144 126 
L 144 0 
L 0 0 
z
" style="fill: #ffffff"/>
  </g>
  <g id="axes_1">
   <g id="patch_2">
    <path d="M 10.8 90.8 
L 133.2 90.8 
L 133.2 10.8 
L 10.8 10.8 
z
" style="fill: #ffffff"/>
   </g>
   <g id="matplotlib.axis_1">
    <g id="xtick_1">
     <g id="line2d_1">
      <defs>
       <path id="md02300cbd0" d="M 0 0 
L 0 -8 
" style="stroke: #000000; stroke-width: 1.5"/>
      </defs>
      <g>
       <use xlink:href="#md02300cbd0" x="44.181818" y="90.8" style="stroke: #000000; stroke-width: 1.5"/>
      </g>
     </g>
     <g id="text_1">
      <!-- 0 -->
      <g transform="translate(39.409943 112.197656) scale(0.15 -0.15)">
       <defs>
        <path id="DejaVuSans-30" d="M 2034 4250 
Q 1547 4250 1301 3770 
Q 1056 3291 1056 2328 
Q 1056 1369 1301 889 
Q 1547 409 2034 409 
Q 2525 409 2770 889 
Q 3016 1369 3016 2328 
Q 3016 3291 2770 3770 
Q 2525 4250 2034 4250 
z
M 2034 4750 
Q 2819 4750 3233 4129 
Q 3647 3509 3647 2328 
Q 3647 1150 3233 529 
Q 2819 -91 2034 -91 
Q 1250 -91 836 529 
Q 422 1150 422 2328 
Q 422 3509 836 4129 
Q 1250 4750 2034 4750 
z
" transform="scale(0.015625)"/>
       </defs>
       <use xlink:href="#DejaVuSans-30"/>
      </g>
     </g>
    </g>
    <g id="xtick_2">
     <g id="line2d_2">
      <g>
       <use xlink:href="#md02300cbd0" x="99.818182" y="90.8" style="stroke: #000000; stroke-width: 1.5"/>
      </g>
     </g>
     <g id="text_2">
      <!-- 1 -->
      <g transform="translate(95.046307 112.197656) scale(0.15 -0.15)">
       <defs>
        <path id="DejaVuSans-31" d="M 794 531 
L 1825 531 
L 1825 4091 
L 703 3866 
L 703 4441 
L 1819 4666 
L 2450 4666 
L 2450 531 
L 3481 531 
L 3481 0 
L 794 0 
L 794 531 
z
" transform="scale(0.015625)"/>
       </defs>
       <use xlink:href="#DejaVuSans-31"/>
      </g>
     </g>
    </g>
   </g>
   <g id="matplotlib.axis_2">
    <g id="ytick_1"/>
    <g id="ytick_2"/>
    <g id="ytick_3"/>
    <g id="ytick_4"/>
   </g>
   <g id="line2d_3">
    <path d="M 16.363636 15.8 
L 18.233205 28.433342 
L 20.05826 39.282362 
L 21.838802 48.55776 
L 23.57483 56.449206 
L 25.266345 63.127085 
L 26.913346 68.744125 
L 28.515833 73.436916 
L 30.073807 77.327328 
L 31.587268 80.523825 
L 33.056215 83.122688 
L 34.491776 85.223874 
L 35.893953 86.894109 
L 37.273873 88.202371 
L 38.653793 89.209106 
L 40.033712 89.944184 
L 41.435889 90.442361 
L 42.893708 90.725182 
L 44.440553 90.797143 
L 46.120939 90.649125 
L 48.001637 90.254837 
L 50.205057 89.557326 
L 53.031667 88.414294 
L 63.570248 83.926854 
L 66.207675 83.173601 
L 68.633663 82.708945 
L 70.948368 82.490468 
L 73.218558 82.498616 
L 75.511006 82.730046 
L 77.881352 83.194998 
L 80.418624 83.923186 
L 83.289747 84.985708 
L 87.095655 86.651938 
L 93.260781 89.358688 
L 95.742411 90.185447 
L 97.756648 90.630251 
L 99.514933 90.796082 
L 101.106292 90.725182 
L 102.575239 90.439319 
L 103.977416 89.939266 
L 105.335079 89.216082 
L 106.670485 88.248595 
L 108.005891 86.999877 
L 109.352426 85.427457 
L 110.710089 83.493252 
L 112.101137 81.115076 
L 113.525571 78.227318 
L 114.983389 74.756974 
L 116.485721 70.589816 
L 118.021439 65.659096 
L 119.601669 59.820041 
L 121.226414 52.942691 
L 122.895671 44.881969 
L 124.609443 35.476263 
L 126.356599 24.619363 
L 127.636364 15.8 
L 127.636364 15.8 
" clip-path="url(#p58af35a158)" style="fill: none; stroke: #005522; stroke-opacity: 0.501961; stroke-width: 1.5; stroke-linecap: square"/>
   </g>
   <g id="patch_3">
    <path d="M 10.8 90.8 
L 10.8 10.8 
" style="fill: none; stroke: #000000; stroke-width: 2.5; stroke-linejoin: miter; stroke-linecap: square"/>
   </g>
   <g id="patch_4">
    <path d="M 133.2 90.8 
L 133.2 10.8 
" style="fill: none; stroke: #000000; stroke-width: 2.5; stroke-linejoin: miter; stroke-linecap: square"/>
   </g>
   <g id="patch_5">
    <path d="M 10.8 90.8 
L 133.2 90.8 
" style="fill: none; stroke: #000000; stroke-width: 2.5; stroke-linejoin: miter; stroke-linecap: square"/>
   </g>
   <g id="patch_6">
    <path d="M 10.8 10.8 
L 133.2 10.8 
" style="fill: none; stroke: #000000; stroke-width: 2.5; stroke-linejoin: miter; stroke-linecap: square"/>
   </g>
  </g>
 </g>
 <defs>
  <clipPath id="p58af35a158">
   <rect x="10.8" y="10.8" width="122.4" height="80"/>
  </clipPath>
 </defs>
</svg>
