<?xml version="1.0" encoding="UTF-8" standalone="no"?>
<!-- Created with Inkscape (http://www.inkscape.org/) -->

<svg
   width="209.58922mm"
   height="75.174271mm"
   viewBox="0 0 209.58922 75.174271"
   version="1.1"
   id="svg1"
   inkscape:version="1.4.2 (ebf0e940d0, 2025-05-08)"
   sodipodi:docname="fig1.svg"
   xmlns:inkscape="http://www.inkscape.org/namespaces/inkscape"
   xmlns:sodipodi="http://sodipodi.sourceforge.net/DTD/sodipodi-0.dtd"
   xmlns="http://www.w3.org/2000/svg"
   xmlns:svg="http://www.w3.org/2000/svg">
  <sodipodi:namedview
     id="namedview1"
     pagecolor="#ffffff"
     bordercolor="#000000"
     borderopacity="0.25"
     inkscape:showpageshadow="2"
     inkscape:pageopacity="0.0"
     inkscape:pagecheckerboard="0"
     inkscape:deskcolor="#d1d1d1"
     inkscape:document-units="mm"
     inkscape:zoom="0.71704965"
     inkscape:cx="419.77568"
     inkscape:cy="253.12055"
     inkscape:window-width="931"
     inkscape:window-height="1006"
     inkscape:window-x="0"
     inkscape:window-y="0"
     inkscape:window-maximized="1"
     inkscape:current-layer="layer1" />
  <defs
     id="defs1" />
  <g
     inkscape:label="Layer 1"
     inkscape:groupmode="layer"
     id="layer1"
     transform="translate(-0.41078838)">
    <path
       style="fill:#000000;fill-opacity:1;fill-rule:nonzero;stroke:none;stroke-width:0.264583"
       id="path2"
       d="m 15.869717,22.185973 c -0.690176,1.614551 -1.461231,3.196876 -2.070527,4.843654 -3.115501,8.420443 -5.5267882,17.403759 -6.2316842,26.381236 -0.2087491,2.658604 -0.3769178,5.357966 -0.016947,8.000346 0.282684,2.075045 1.2811331,3.987681 1.9216997,5.98152 1.2542525,1.121283 2.1929125,2.758863 3.7627585,3.363849 4.74666,1.829266 8.515032,-0.21073 12.182806,-3.131537 4.641161,-3.695959 8.465753,-9.181867 11.162434,-14.366221 1.493642,-2.871518 2.497815,-5.972209 3.74672,-8.958313 2.124993,-7.099924 3.52898,-14.45691 2.556097,-21.881528 -0.226132,-1.725738 -0.81742,-3.945172 -1.808382,-5.502841 -0.140648,-0.221082 -0.400492,-0.337997 -0.600739,-0.506995 -0.318479,0.484731 -1.090198,0.890072 -0.955437,1.454194 0.161266,0.675082 1.037579,0.929574 1.616384,1.312625 2.4599,1.627957 3.215672,1.633727 5.936618,3.090423 4.293356,2.298507 3.417199,1.919692 7.22876,5.210401 0.913286,1.438679 2.049018,2.758276 2.739856,4.316042 3.626477,8.177323 1.846228,18.214009 0.532762,26.721543 -0.08886,1.042363 -0.631311,3.559574 0.244536,4.70227 1.380956,1.801701 3.720489,0.869072 5.351494,0.08544 3.880588,-1.864458 6.511319,-4.980088 9.552467,-7.913777 1.730449,-2.406846 3.651641,-4.687425 5.191344,-7.220543 3.104994,-5.108329 5.494092,-10.683486 7.088238,-16.442378 0.904473,-3.267424 1.755468,-7.800884 1.207913,-11.344923 -0.139886,-0.905392 -0.695812,-1.695009 -1.043718,-2.542514 -0.595889,-0.306753 -1.117701,-0.938257 -1.787668,-0.92026 -2.078977,0.05585 -3.110256,1.462059 -2.191414,3.404725 1.040233,2.199325 4.215987,3.878016 6.035643,4.994 1.605031,0.984355 3.244961,1.910638 4.867444,2.865958 4.105437,2.905882 6.612594,4.218596 9.730605,8.326046 2.62205,3.454112 4.7048,8.248494 6.00849,12.351186 0.59131,1.860849 0.97314,3.783987 1.35298,5.699226 0.32621,1.644867 0.50895,3.314962 0.76343,4.972444 0.58561,2.871147 0.6156,4.900636 2.51189,7.269065 2.47813,3.09514 6.75384,3.712802 10.27437,2.050086 1.70148,-0.803592 3.01862,-2.247466 4.52792,-3.371199 1.49979,-1.85012 3.18432,-3.564667 4.49937,-5.550357 2.87176,-4.33632 5.04674,-9.31762 6.48933,-14.304002 1.09586,-3.787915 1.87821,-8.254537 1.40047,-12.244663 -0.20543,-1.715754 -0.88251,-3.341444 -1.32376,-5.012168 -1.06888,-1.645656 -1.87834,-3.492555 -3.20664,-4.936969 -7.69803,-8.371025 -20.86584,-11.626707 -31.82893,-9.723898 -2.9904,0.519029 -5.754386,1.932514 -8.631579,2.898771 -2.472778,1.796956 -5.231495,3.255119 -7.418332,5.390867 -5.925902,5.78746 -9.351378,14.026079 -6.931128,22.275716 1.946759,6.635697 4.85508,8.231484 9.600655,12.807783 2.3295,1.313842 4.537493,2.871333 6.9885,3.941522 3.513614,1.53416 8.032034,2.658012 11.959344,2.339554 1.89777,-0.153887 6.18415,-0.850005 2.68232,-4.108479 -1.60052,-1.489302 -3.85668,-2.060305 -5.78502,-3.090457 -9.314532,-3.61587 -18.945325,-6.336305 -28.645368,-8.69315 -2.492873,-0.605698 -5.002194,-1.142294 -7.510878,-1.67875 -5.42888,-1.160907 -3.355901,-0.02786 -5.990968,-1.741723 7.473764,-3.292199 15.165263,-6.121976 23.09392,-8.130198 4.73892,-1.200304 9.50998,-2.367159 14.360344,-2.977147 5.15467,-0.648264 10.3716,-0.883325 15.56598,-0.78644 4.43086,0.08264 8.81923,0.882351 13.22884,1.323525 9.38657,2.254078 13.60679,2.456791 21.71145,7.108476 1.96073,1.125368 3.79412,2.541212 5.31244,4.21622 1.87643,2.070073 2.34852,3.874021 1.04571,6.181555 -0.40505,0.717423 -1.14632,1.183643 -1.71948,1.775466 -0.4284,0.423473 -0.8623,0.841454 -1.28519,1.270423 -0.61317,0.621964 -1.02911,0.998 1.1098,1.188109 0.37409,0.03325 0.66531,-0.348867 0.99335,-0.531736 1.88146,-1.048827 1.77047,-1.020839 3.84348,-2.316898 1.15893,-0.886391 2.35354,-1.727978 3.47679,-2.659174 5.3049,-4.397896 10.50871,-9.727337 14.70454,-15.203579 0.71914,-0.938589 1.35749,-1.936396 2.03623,-2.904594 0.84217,-1.50115 2.81925,-4.507989 0.64962,-5.946627 -0.54666,-0.362484 -1.38083,-0.262934 -1.96852,-0.264019 -0.14716,0.009 -0.29608,0.0027 -0.44149,0.02703 -0.0833,0.01396 0.32035,0.05601 0.2534,0.0045 -0.28618,-0.220285 -0.61411,-0.383948 -0.94227,-0.534731 -0.68874,-0.316462 -1.40207,-0.57638 -2.10311,-0.864569 -0.13461,-0.07662 -1.21822,1.826979 -1.08362,1.903602 v 0 c 0.7161,0.176518 1.43674,0.33557 2.14831,0.529552 0.87721,0.23914 1.68963,0.617488 2.61981,0.546511 0.16798,-0.111659 -0.16747,0.10699 0.33405,-0.1495 0.0717,-0.03667 0.15043,-0.193492 0.20237,-0.13195 0.65702,0.778486 -1.94966,3.257238 -1.86248,3.531375 -0.73861,0.872323 -1.45393,1.764919 -2.21583,2.616972 -0.93642,1.047216 -5.99502,6.395498 -6.71363,7.143377 -1.93904,2.017991 -5.686,5.833978 -7.71734,7.835151 -0.97388,0.959414 -1.97148,1.894438 -2.95723,2.841657 -0.68742,0.514004 -1.37221,1.03156 -2.06228,1.542013 -0.51553,0.381344 -1.06073,0.724154 -1.55446,1.133335 -0.36784,0.30485 -1.0223,0.525473 -1.02358,1.003215 -0.008,3.120446 3.1188,0.118232 3.52748,-0.212722 0.74957,-0.87226 1.74131,-1.584677 2.24872,-2.61678 1.56461,-3.182569 1.35589,-6.059887 -0.67199,-9.128148 -1.4235,-2.153801 -3.27143,-4.069324 -5.35045,-5.599973 -8.02803,-5.910511 -12.78413,-6.297493 -22.52647,-9.213421 -5.73344,-0.519229 -11.44347,-1.5321 -17.20031,-1.557686 -10.9539,-0.04868 -20.471414,1.780206 -30.791855,5.223483 -5.259898,1.754894 -14.93752,5.82336 -19.555872,9.944684 -1.184082,1.056654 -1.624621,2.726696 -2.436932,4.090041 0.511654,0.723318 0.794883,1.682855 1.534959,2.169948 1.51597,0.997754 11.240855,3.932648 11.613327,4.043923 9.544968,2.851568 19.211219,5.286426 28.909553,7.552812 1.94774,0.444688 3.8709,1.015558 5.8432,1.334064 0.52456,0.08471 1.43923,-0.643914 1.58842,-0.133938 0.14748,0.504135 -1.03289,0.267632 -1.55742,0.23989 -1.51185,-0.07995 -3.03426,-0.210381 -4.50715,-0.560618 -5.904814,-1.404088 -6.920941,-2.423006 -12.422065,-5.344236 -4.133683,-3.62807 -7.03612,-5.171956 -8.881366,-10.632525 -2.419027,-7.158548 1.02049,-14.09274 6.151679,-19.005171 1.949566,-1.866449 4.37651,-3.159734 6.564765,-4.7396 2.594218,-0.842766 5.112197,-1.972547 7.782657,-2.528299 5.38946,-1.121603 9.85697,-0.662042 15.15904,0.804654 4.3796,1.211516 9.23583,3.397501 12.67633,6.496657 1.24787,1.124072 2.04276,2.66647 3.06414,3.999705 0.35954,1.430296 0.96163,2.820739 1.07863,4.290886 0.28501,3.581249 -0.84089,7.918394 -1.89308,11.215944 -1.39526,4.372734 -3.60243,9.605057 -5.91871,13.566563 -1.08905,1.862601 -2.46197,3.544009 -3.69295,5.316014 -1.3782,1.259945 -3.50724,3.872092 -5.78759,4.204872 -0.80773,0.117872 -1.66571,-0.04581 -2.42399,-0.347999 -1.83701,-0.732067 -2.78335,-2.191805 -3.28277,-4.061933 -0.3438,-1.287405 -0.31453,-2.646416 -0.4718,-3.969626 -0.37543,-3.891788 -0.58214,-7.670194 -1.67595,-11.468753 -1.39049,-4.828858 -3.53825,-9.464194 -6.66057,-13.436598 -3.63531,-4.625062 -5.835795,-5.546346 -10.584251,-8.674228 -1.696381,-0.833078 -3.392323,-1.667059 -5.089149,-2.499233 -1.843566,-0.90414 -4.151519,-1.877854 -5.862418,-3.154205 -0.23727,-0.177006 -0.949158,-0.954432 -0.689303,-1.419763 0.09663,-0.173035 0.381294,-0.108293 0.571942,-0.162439 0.111077,0.616275 0.357341,1.223084 0.333235,1.848825 -0.123359,3.202318 -1.326888,7.46546 -2.271866,10.30006 -2.683349,8.049114 -6.376606,15.724423 -11.266546,22.672312 -5.05983,5.721504 -3.023655,3.83253 -7.955967,8.114192 -0.48754,0.423224 -0.970852,0.853215 -1.487059,1.240954 -0.185058,0.138999 -0.464558,0.514294 -0.609016,0.333465 -0.825272,-1.033053 1.3701,-3.363564 0.551808,-3.9281 0.340447,-1.373888 0.738584,-2.734754 1.021344,-4.121663 1.641748,-8.052644 2.25153,-16.944149 -1.486601,-24.568412 -0.859901,-1.753843 -2.208525,-3.222423 -3.312787,-4.833637 -1.335514,-1.08776 -2.575925,-2.304033 -4.006543,-3.26328 -2.307405,-1.547144 -4.809191,-2.419627 -7.343754,-3.460914 -0.893979,-0.367278 -1.788914,-0.73242 -2.677774,-1.111921 -0.526764,-0.224904 -0.99827,-0.649969 -1.568746,-0.701145 -0.625451,-0.05611 -1.227984,0.263453 -1.841976,0.39518 -0.08195,0.820678 0.03053,-0.499566 0.320675,1.833602 0.135932,1.093074 0.269324,2.191637 0.273764,3.293121 0.02811,6.974197 -1.399225,13.81882 -3.542056,20.431339 -1.159748,2.817244 -2.126086,5.72211 -3.479247,8.451731 -2.37944,4.799857 -5.64927,9.929053 -9.565932,13.682633 -0.955309,0.915533 -5.273754,4.632579 -7.750818,3.897218 -1.123732,-0.3336 -1.795891,-1.50699 -2.693836,-2.260487 -0.405069,-1.710512 -1.109396,-3.376906 -1.215208,-5.131538 -0.151978,-2.520182 0.173844,-5.051279 0.4498,-7.560913 1.157134,-10.523389 3.965526,-20.758322 5.855282,-31.151234 0.04323,-0.133435 -1.84383,-0.744807 -1.887061,-0.611371 z" />
  </g>
</svg>
