<?xml version="1.0" encoding="UTF-8" standalone="no"?>
<!-- Created with Inkscape (http://www.inkscape.org/) -->

<svg
   width="77.414337mm"
   height="60.099731mm"
   viewBox="0 0 77.414337 60.099732"
   version="1.1"
   id="svg1"
   xml:space="preserve"
   xmlns:inkscape="http://www.inkscape.org/namespaces/inkscape"
   xmlns:sodipodi="http://sodipodi.sourceforge.net/DTD/sodipodi-0.dtd"
   xmlns="http://www.w3.org/2000/svg"
   xmlns:svg="http://www.w3.org/2000/svg"><sodipodi:namedview
     id="namedview1"
     pagecolor="#ffffff"
     bordercolor="#000000"
     borderopacity="0.25"
     inkscape:showpageshadow="2"
     inkscape:pageopacity="0.0"
     inkscape:pagecheckerboard="0"
     inkscape:deskcolor="#d1d1d1"
     inkscape:document-units="mm"><inkscape:page
       x="5.6027697e-23"
       y="0"
       width="77.414337"
       height="60.099731"
       id="page2"
       margin="0"
       bleed="0" /></sodipodi:namedview><defs
     id="defs1"><clipPath
       clipPathUnits="userSpaceOnUse"
       id="clipPath97"><path
         d="M -1016,-351 H 1660 V 1068 H -1016 Z"
         transform="translate(-0.00149982)"
         id="path97" /></clipPath><clipPath
       clipPathUnits="userSpaceOnUse"
       id="clipPath107"><path
         d="M -1016,-351 H 1660 V 1068 H -1016 Z"
         transform="translate(8.2906115e-5,-0.00102041)"
         id="path107" /></clipPath><clipPath
       clipPathUnits="userSpaceOnUse"
       id="clipPath110"><path
         d="m 1004.14,111.52 h 311.5117 v 209.6 H 1004.14 Z"
         id="path110" /></clipPath><clipPath
       clipPathUnits="userSpaceOnUse"
       id="clipPath112"><path
         d="m 1004.14,111.52 h 311.5117 v 209.6 H 1004.14 Z"
         id="path112" /></clipPath><clipPath
       clipPathUnits="userSpaceOnUse"
       id="clipPath114"><path
         d="m 1004.14,111.52 h 311.5117 v 209.6 H 1004.14 Z"
         id="path114" /></clipPath><clipPath
       clipPathUnits="userSpaceOnUse"
       id="clipPath116"><path
         d="m 1004.14,111.52 h 311.5117 v 209.6 H 1004.14 Z"
         id="path116" /></clipPath><clipPath
       clipPathUnits="userSpaceOnUse"
       id="clipPath118"><path
         d="m 1004.14,111.52 h 311.5117 v 209.6 H 1004.14 Z"
         id="path118" /></clipPath><clipPath
       clipPathUnits="userSpaceOnUse"
       id="clipPath120"><path
         d="m 1004.14,111.52 h 311.5117 v 209.6 H 1004.14 Z"
         id="path120" /></clipPath></defs><g
     id="g1"
     inkscape:groupmode="layer"
     inkscape:label="1"
     transform="matrix(0.26458334,0,0,0.26458333,271.9831,-135.28038)"><path
       id="path88"
       d="m -973.62708,689.53022 h 233.10033 V 532.68917 h -233.10033 z"
       style="fill:#ffffff;fill-opacity:1;fill-rule:nonzero;stroke:none;stroke-width:0.748286" /><path
       id="path89"
       d="m -936.54291,689.53022 v -5.98631"
       style="fill:#000000;fill-opacity:1;fill-rule:nonzero;stroke:#000000;stroke-width:1.87072;stroke-linecap:butt;stroke-linejoin:round;stroke-miterlimit:10;stroke-dasharray:none;stroke-opacity:1" /><path
       id="path90"
       d="m -936.54291,532.68917 v 5.98629"
       style="fill:#000000;fill-opacity:1;fill-rule:nonzero;stroke:#000000;stroke-width:1.87072;stroke-linecap:butt;stroke-linejoin:round;stroke-miterlimit:10;stroke-dasharray:none;stroke-opacity:1" /><text
       id="text90"
       xml:space="preserve"
       x="-949.638"
       y="709.52356"
       style="font-size:8.97945px;stroke-width:0.748286"><tspan
         id="tspan90"
         style="font-variant:normal;font-weight:normal;font-size:16.4623px;font-family:'DejaVu Sans';writing-mode:lr-tb;fill:#000000;fill-opacity:1;fill-rule:nonzero;stroke:none;stroke-width:0.748286"
         x="-949.638"
         y="709.52356">0.2</tspan></text><path
       id="path91"
       d="m -873.47463,689.53022 v -5.98631"
       style="fill:#000000;fill-opacity:1;fill-rule:nonzero;stroke:#000000;stroke-width:1.87072;stroke-linecap:butt;stroke-linejoin:round;stroke-miterlimit:10;stroke-dasharray:none;stroke-opacity:1" /><path
       id="path92"
       d="m -873.47463,532.68917 v 5.98629"
       style="fill:#000000;fill-opacity:1;fill-rule:nonzero;stroke:#000000;stroke-width:1.87072;stroke-linecap:butt;stroke-linejoin:round;stroke-miterlimit:10;stroke-dasharray:none;stroke-opacity:1" /><text
       id="text92"
       xml:space="preserve"
       x="-886.56964"
       y="709.52356"
       style="font-size:8.97945px;stroke-width:0.748286"><tspan
         id="tspan92"
         style="font-variant:normal;font-weight:normal;font-size:16.4623px;font-family:'DejaVu Sans';writing-mode:lr-tb;fill:#000000;fill-opacity:1;fill-rule:nonzero;stroke:none;stroke-width:0.748286"
         x="-886.56964"
         y="709.52356">0.4</tspan></text><path
       id="path93"
       d="m -810.4064,689.53022 v -5.98631"
       style="fill:#000000;fill-opacity:1;fill-rule:nonzero;stroke:#000000;stroke-width:1.87072;stroke-linecap:butt;stroke-linejoin:round;stroke-miterlimit:10;stroke-dasharray:none;stroke-opacity:1" /><path
       id="path94"
       d="m -810.4064,532.68917 v 5.98629"
       style="fill:#000000;fill-opacity:1;fill-rule:nonzero;stroke:#000000;stroke-width:1.87072;stroke-linecap:butt;stroke-linejoin:round;stroke-miterlimit:10;stroke-dasharray:none;stroke-opacity:1" /><text
       id="text94"
       xml:space="preserve"
       x="-823.5014"
       y="709.52356"
       style="font-size:8.97945px;stroke-width:0.748286"><tspan
         id="tspan94"
         style="font-variant:normal;font-weight:normal;font-size:16.4623px;font-family:'DejaVu Sans';writing-mode:lr-tb;fill:#000000;fill-opacity:1;fill-rule:nonzero;stroke:none;stroke-width:0.748286"
         x="-823.5014"
         y="709.52356">0.6</tspan></text><path
       id="path95"
       d="m -747.33812,689.53022 v -5.98631"
       style="fill:#000000;fill-opacity:1;fill-rule:nonzero;stroke:#000000;stroke-width:1.87072;stroke-linecap:butt;stroke-linejoin:round;stroke-miterlimit:10;stroke-dasharray:none;stroke-opacity:1" /><path
       id="path96"
       d="m -747.33812,532.68917 v 5.98629"
       style="fill:#000000;fill-opacity:1;fill-rule:nonzero;stroke:#000000;stroke-width:1.87072;stroke-linecap:butt;stroke-linejoin:round;stroke-miterlimit:10;stroke-dasharray:none;stroke-opacity:1" /><text
       id="text96"
       xml:space="preserve"
       x="-760.43317"
       y="709.52356"
       style="font-size:8.97945px;stroke-width:0.748286"><tspan
         id="tspan96"
         style="font-variant:normal;font-weight:normal;font-size:16.4623px;font-family:'DejaVu Sans';writing-mode:lr-tb;fill:#000000;fill-opacity:1;fill-rule:nonzero;stroke:none;stroke-width:0.748286"
         x="-760.43317"
         y="709.52356">0.8</tspan></text><text
       id="text97"
       xml:space="preserve"
       x="-855.45917"
       y="737.71875"
       style="font-size:8.97945px;stroke-width:0.748286"><tspan
         id="tspan97"
         style="font-style:oblique;font-variant:normal;font-weight:normal;font-size:12.8331px;font-family:'DejaVu Sans';writing-mode:lr-tb;fill:#000000;fill-opacity:1;fill-rule:nonzero;stroke:none;stroke-width:0.748286"
         x="-855.45917"
         y="737.71875">P</tspan></text><g
       id="g98"
       transform="matrix(0.56121558,0,0,0.56121558,-1725.0123,476.6574)"><path
         d="M 467,760 428,558 c 64,0 114,-25 148,-75 34,-51 42,-121 26,-210 C 584,183 548,113 494,63 441,13 382,-11 317,-11 l -38,-196 h -90 l 39,196 C 162,-11 113,13 80,63 45,113 36,183 54,273 c 17,89 53,159 108,210 52,50 111,75 176,75 l 40,202 z M 333,68 c 36,0 70,16 102,50 34,37 58,89 72,155 12,65 8,117 -12,155 -19,33 -47,50 -83,50 z m -90,0 80,410 c -37,0 -71,-17 -102,-50 -36,-38 -60,-90 -72,-155 -13,-66 -9,-118 12,-155 18,-34 45,-50 82,-50 z"
         style="fill:#000000;fill-opacity:1;fill-rule:nonzero;stroke:none"
         transform="matrix(0.03266667,0,0,-0.03266667,1527.8612,459.7025)"
         clip-path="url(#clipPath97)"
         id="path98" /></g><path
       id="path99"
       d="m -973.62708,682.40108 h 5.98631"
       style="fill:#000000;fill-opacity:1;fill-rule:nonzero;stroke:#000000;stroke-width:1.87072;stroke-linecap:butt;stroke-linejoin:round;stroke-miterlimit:10;stroke-dasharray:none;stroke-opacity:1" /><path
       id="path100"
       d="m -740.52675,682.40108 h -5.98633"
       style="fill:#000000;fill-opacity:1;fill-rule:nonzero;stroke:#000000;stroke-width:1.87072;stroke-linecap:butt;stroke-linejoin:round;stroke-miterlimit:10;stroke-dasharray:none;stroke-opacity:1" /><text
       id="text100"
       xml:space="preserve"
       x="-991.58594"
       y="688.65625"
       style="font-size:8.97945px;stroke-width:0.748286"><tspan
         id="tspan100"
         style="font-variant:normal;font-weight:normal;font-size:16.4623px;font-family:'DejaVu Sans';writing-mode:lr-tb;fill:#000000;fill-opacity:1;fill-rule:nonzero;stroke:none;stroke-width:0.748286"
         x="-991.58594"
         y="688.65625">0</tspan></text><path
       id="path101"
       d="m -973.62708,610.27056 h 5.98631"
       style="fill:#000000;fill-opacity:1;fill-rule:nonzero;stroke:#000000;stroke-width:1.87072;stroke-linecap:butt;stroke-linejoin:round;stroke-miterlimit:10;stroke-dasharray:none;stroke-opacity:1" /><path
       id="path102"
       d="m -740.52675,610.27056 h -5.98633"
       style="fill:#000000;fill-opacity:1;fill-rule:nonzero;stroke:#000000;stroke-width:1.87072;stroke-linecap:butt;stroke-linejoin:round;stroke-miterlimit:10;stroke-dasharray:none;stroke-opacity:1" /><text
       id="text102"
       xml:space="preserve"
       x="-991.58594"
       y="616.52582"
       style="font-size:8.97945px;stroke-width:0.748286"><tspan
         id="tspan102"
         style="font-variant:normal;font-weight:normal;font-size:16.4623px;font-family:'DejaVu Sans';writing-mode:lr-tb;fill:#000000;fill-opacity:1;fill-rule:nonzero;stroke:none;stroke-width:0.748286"
         x="-991.58594"
         y="616.52582">5</tspan></text><path
       id="path103"
       d="m -973.62708,538.14006 h 5.98631"
       style="fill:#000000;fill-opacity:1;fill-rule:nonzero;stroke:#000000;stroke-width:1.87072;stroke-linecap:butt;stroke-linejoin:round;stroke-miterlimit:10;stroke-dasharray:none;stroke-opacity:1" /><path
       id="path104"
       d="m -740.52675,538.14006 h -5.98633"
       style="fill:#000000;fill-opacity:1;fill-rule:nonzero;stroke:#000000;stroke-width:1.87072;stroke-linecap:butt;stroke-linejoin:round;stroke-miterlimit:10;stroke-dasharray:none;stroke-opacity:1" /><text
       id="text104"
       xml:space="preserve"
       x="-1002.062"
       y="544.39526"
       style="font-size:8.97945px;stroke-width:0.748286"><tspan
         id="tspan104"
         style="font-variant:normal;font-weight:normal;font-size:16.4623px;font-family:'DejaVu Sans';writing-mode:lr-tb;fill:#000000;fill-opacity:1;fill-rule:nonzero;stroke:none;stroke-width:0.748286"
         x="-1002.062"
         y="544.39526">10</tspan></text><text
       id="text105"
       xml:space="preserve"
       transform="rotate(-90)"
       x="-634.30658"
       y="-1014.0345"
       style="font-size:8.97945px;stroke-width:0.748286"><tspan
         id="tspan105"
         style="font-variant:normal;font-weight:normal;font-size:18.3331px;font-family:'DejaVu Sans';writing-mode:lr-tb;fill:#000000;fill-opacity:1;fill-rule:nonzero;stroke:none;stroke-width:0.748286"
         x="-634.30658"
         y="-1014.0345">P(</tspan><tspan
         id="tspan106"
         style="font-style:oblique;font-variant:normal;font-weight:normal;font-size:12.8331px;font-family:'DejaVu Sans';writing-mode:lr-tb;fill:#000000;fill-opacity:1;fill-rule:nonzero;stroke:none;stroke-width:0.748286"
         x="-604.00513"
         y="-1010.9655">P</tspan><tspan
         id="tspan107"
         style="font-variant:normal;font-weight:normal;font-size:18.3331px;font-family:'DejaVu Sans';writing-mode:lr-tb;fill:#000000;fill-opacity:1;fill-rule:nonzero;stroke:none;stroke-width:0.748286"
         x="-595.75494"
         y="-1014.0345">)</tspan></text><g
       id="g108"
       transform="matrix(0.56121558,0,0,0.56121558,-1725.0123,476.6574)"><path
         d="M 467,760 428,558 c 64,0 114,-25 148,-75 34,-51 42,-121 26,-210 C 584,183 548,113 494,63 441,13 382,-11 317,-11 l -38,-196 h -90 l 39,196 C 162,-11 113,13 80,63 45,113 36,183 54,273 c 17,89 53,159 108,210 52,50 111,75 176,75 l 40,202 z M 333,68 c 36,0 70,16 102,50 34,37 58,89 72,155 12,65 8,117 -12,155 -19,33 -47,50 -83,50 z m -90,0 80,410 c -37,0 -71,-17 -102,-50 -36,-38 -60,-90 -72,-155 -13,-66 -9,-118 12,-155 18,-34 45,-50 82,-50 z"
         style="fill:#000000;fill-opacity:1;fill-rule:nonzero;stroke:none"
         transform="matrix(0,-0.03266667,-0.03266667,0,1266.8533,248.46331)"
         clip-path="url(#clipPath107)"
         id="path108" /></g><path
       id="path109"
       d="m 1018.2996,198.61866 11.7997,-5.00461 11.7997,4.71267 11.7997,18.70472 11.7997,9.88409 11.7997,10.57223 11.7996,-42.33062 11.7997,-20.37292 11.7997,-40.34963 11.7997,-11.82338 11.7997,-1.54308 11.7997,-0.0209 h 11.7997 11.7997 11.7996 11.7997 11.7997 11.7997 11.7997 11.7997 11.7997 11.7996 11.7997 11.7997 11.7997"
       style="fill:none;stroke:#4682b4;stroke-width:3;stroke-linecap:square;stroke-linejoin:round;stroke-miterlimit:10;stroke-dasharray:none;stroke-opacity:1"
       transform="matrix(0.74828742,0,0,-0.74828742,-1725.0123,772.97923)"
       clip-path="url(#clipPath110)" /><path
       id="path111"
       d="m 1018.2996,213.64514 11.7997,42.66146 11.7997,55.28613 11.7997,-23.30707 11.7997,-85.40811 11.7997,-62.86773 11.7996,-16.98622 11.7997,-1.85707 11.7997,-0.11926 h 11.7997 11.7997 11.7997 11.7997 11.7997 11.7996 11.7997 11.7997 11.7997 11.7997 11.7997 11.7997 11.7996 11.7997 11.7997 11.7997"
       style="fill:none;stroke:#ffa500;stroke-width:3;stroke-linecap:square;stroke-linejoin:round;stroke-miterlimit:10;stroke-dasharray:none;stroke-opacity:1"
       transform="matrix(0.74828742,0,0,-0.74828742,-1725.0123,772.97923)"
       clip-path="url(#clipPath112)" /><path
       id="path113"
       d="m 1018.2996,272.33077 11.7997,-5.26486 11.7997,-19.33642 11.7997,-22.26559 11.7997,-31.11056 11.7997,-25.59682 11.7996,-28.06652 11.7997,-5.6669 11.7997,-9.26617 11.7997,-4.00129 11.7997,-0.63179 11.7997,-0.0766 h 11.7997 11.7997 11.7996 11.7997 11.7997 11.7997 11.7997 11.7997 11.7997 11.7996 11.7997 11.7997 11.7997"
       style="fill:none;stroke:#7b68ee;stroke-width:3;stroke-linecap:square;stroke-linejoin:round;stroke-miterlimit:10;stroke-dasharray:none;stroke-opacity:1"
       transform="matrix(0.74828742,0,0,-0.74828742,-1725.0123,772.97923)"
       clip-path="url(#clipPath114)" /><path
       id="path115"
       d="m 1018.2996,266.546 11.7997,-10.59126 11.7997,-18.38411 11.7997,-15.91605 11.7997,-27.20692 11.7997,-22.07647 11.7996,-26.54619 11.7997,-3.51746 11.7997,-8.35641 11.7997,-7.32644 11.7997,-4.10047 11.7997,-1.22431 11.7997,-0.2332 11.7997,-0.0194 h 11.7996 11.7997 11.7997 11.7997 11.7997 11.7997 11.7997 11.7996 11.7997 11.7997 11.7997"
       style="fill:none;stroke:#b8860b;stroke-width:3;stroke-linecap:square;stroke-linejoin:round;stroke-miterlimit:10;stroke-dasharray:none;stroke-opacity:1"
       transform="matrix(0.74828742,0,0,-0.74828742,-1725.0123,772.97923)"
       clip-path="url(#clipPath116)" /><path
       id="path117"
       d="m 1018.2996,265.37172 11.7997,-6.72617 11.7997,-16.21969 11.7997,-22.71525 11.7997,-27.11608 11.7997,-21.63906 11.7996,-25.96302 11.7997,-2.4983 11.7997,-9.74334 11.7997,-6.01512 11.7997,-3.47839 11.7997,-2.09472 11.7997,-0.11531 h 11.7997 11.7996 11.7997 11.7997 11.7997 11.7997 11.7997 11.7997 11.7996 11.7997 11.7997 11.7997"
       style="fill:none;stroke:#fa8072;stroke-width:3;stroke-linecap:square;stroke-linejoin:round;stroke-miterlimit:10;stroke-dasharray:none;stroke-opacity:1"
       transform="matrix(0.74828742,0,0,-0.74828742,-1725.0123,772.97923)"
       clip-path="url(#clipPath118)" /><path
       id="path119"
       d="m 1018.2996,271.73215 11.7997,-20.71744 11.7997,-14.71926 11.7997,-18.54704 11.7997,-25.53178 11.7997,-23.57843 11.7996,-22.71026 11.7997,-2.01256 11.7997,-7.55693 11.7997,-6.11658 11.7997,-5.66277 11.7997,-2.46636 11.7997,-0.74977 11.7997,-0.3157 h 11.7996 11.7997 11.7997 11.7997 11.7997 11.7997 11.7997 11.7996 11.7997 11.7997 11.7997"
       style="fill:none;stroke:#708090;stroke-width:3;stroke-linecap:square;stroke-linejoin:round;stroke-miterlimit:10;stroke-dasharray:none;stroke-opacity:1"
       transform="matrix(0.74828742,0,0,-0.74828742,-1725.0123,772.97923)"
       clip-path="url(#clipPath120)" /><path
       id="path121"
       d="M -973.62708,689.53022 V 532.68917"
       style="fill:none;stroke:#000000;stroke-width:1.87072;stroke-linecap:square;stroke-linejoin:miter;stroke-miterlimit:10;stroke-dasharray:none;stroke-opacity:1" /><path
       id="path122"
       d="M -740.52675,689.53022 V 532.68917"
       style="fill:none;stroke:#000000;stroke-width:1.87072;stroke-linecap:square;stroke-linejoin:miter;stroke-miterlimit:10;stroke-dasharray:none;stroke-opacity:1" /><path
       id="path123"
       d="m -973.62708,689.53022 h 233.10033"
       style="fill:none;stroke:#000000;stroke-width:1.87072;stroke-linecap:square;stroke-linejoin:miter;stroke-miterlimit:10;stroke-dasharray:none;stroke-opacity:1" /><path
       id="path124"
       d="m -973.62708,532.68917 h 233.10033"
       style="fill:none;stroke:#000000;stroke-width:1.87072;stroke-linecap:square;stroke-linejoin:miter;stroke-miterlimit:10;stroke-dasharray:none;stroke-opacity:1" /><text
       id="text124"
       xml:space="preserve"
       x="-885.73395"
       y="525.20636"
       style="font-size:8.97945px;stroke-width:0.748286"><tspan
         id="tspan124"
         style="font-variant:normal;font-weight:normal;font-size:19.0814px;font-family:'DejaVu Sans';writing-mode:lr-tb;fill:#000000;fill-opacity:1;fill-rule:nonzero;stroke:none;stroke-width:0.748286"
         x="-885.73395"
         y="525.20636">F=5.5</tspan></text><path
       id="path125"
       d="m -843.30407,550.32771 h 13.46917 13.46918"
       style="fill:none;stroke:#4682b4;stroke-width:2.24486;stroke-linecap:square;stroke-linejoin:round;stroke-miterlimit:10;stroke-dasharray:none;stroke-opacity:1" /><text
       id="text125"
       xml:space="preserve"
       x="-805.59027"
       y="555.04193"
       style="font-size:8.97945px;stroke-width:0.748286"><tspan
         id="tspan125"
         style="font-variant:normal;font-weight:normal;font-size:13.4692px;font-family:'DejaVu Sans';writing-mode:lr-tb;fill:#000000;fill-opacity:1;fill-rule:nonzero;stroke:none;stroke-width:0.748286"
         x="-805.59027"
         dx="0 -0.47937161"
         y="555.04193">Pe=5</tspan></text><path
       id="path126"
       d="m -843.30407,570.09887 h 13.46917 13.46918"
       style="fill:none;stroke:#ffa500;stroke-width:2.24486;stroke-linecap:square;stroke-linejoin:round;stroke-miterlimit:10;stroke-dasharray:none;stroke-opacity:1" /><text
       id="text126"
       xml:space="preserve"
       x="-805.59027"
       y="574.81311"
       style="font-size:8.97945px;stroke-width:0.748286"><tspan
         id="tspan126"
         style="font-variant:normal;font-weight:normal;font-size:13.4692px;font-family:'DejaVu Sans';writing-mode:lr-tb;fill:#000000;fill-opacity:1;fill-rule:nonzero;stroke:none;stroke-width:0.748286"
         x="-805.59027"
         dx="0 -0.47937161"
         y="574.81311">Pe=10</tspan></text><path
       id="path127"
       d="m -843.30407,589.87002 h 13.46917 13.46918"
       style="fill:none;stroke:#7b68ee;stroke-width:2.24486;stroke-linecap:square;stroke-linejoin:round;stroke-miterlimit:10;stroke-dasharray:none;stroke-opacity:1" /><text
       id="text127"
       xml:space="preserve"
       x="-805.59027"
       y="594.58423"
       style="font-size:8.97945px;stroke-width:0.748286"><tspan
         id="tspan127"
         style="font-variant:normal;font-weight:normal;font-size:13.4692px;font-family:'DejaVu Sans';writing-mode:lr-tb;fill:#000000;fill-opacity:1;fill-rule:nonzero;stroke:none;stroke-width:0.748286"
         x="-805.59027"
         dx="0 -0.47937161"
         y="594.58423">Pe=50</tspan></text><path
       id="path128"
       d="m -843.30407,609.64118 h 13.46917 13.46918"
       style="fill:none;stroke:#b8860b;stroke-width:2.24486;stroke-linecap:square;stroke-linejoin:round;stroke-miterlimit:10;stroke-dasharray:none;stroke-opacity:1" /><text
       id="text128"
       xml:space="preserve"
       x="-805.59027"
       y="614.35541"
       style="font-size:8.97945px;stroke-width:0.748286"><tspan
         id="tspan128"
         style="font-variant:normal;font-weight:normal;font-size:13.4692px;font-family:'DejaVu Sans';writing-mode:lr-tb;fill:#000000;fill-opacity:1;fill-rule:nonzero;stroke:none;stroke-width:0.748286"
         x="-805.59027"
         dx="0 -0.47937161"
         y="614.35541">Pe=100</tspan></text><path
       id="path129"
       d="m -843.30407,629.41234 h 13.46917 13.46918"
       style="fill:none;stroke:#fa8072;stroke-width:2.24486;stroke-linecap:square;stroke-linejoin:round;stroke-miterlimit:10;stroke-dasharray:none;stroke-opacity:1" /><text
       id="text129"
       xml:space="preserve"
       x="-805.59027"
       y="634.12659"
       style="font-size:8.97945px;stroke-width:0.748286"><tspan
         id="tspan129"
         style="font-variant:normal;font-weight:normal;font-size:13.4692px;font-family:'DejaVu Sans';writing-mode:lr-tb;fill:#000000;fill-opacity:1;fill-rule:nonzero;stroke:none;stroke-width:0.748286"
         x="-805.59027"
         dx="0 -0.47937161"
         y="634.12659">Pe=200</tspan></text><path
       id="path130"
       d="m -843.30407,649.18349 h 13.46917 13.46918"
       style="fill:none;stroke:#708090;stroke-width:2.24486;stroke-linecap:square;stroke-linejoin:round;stroke-miterlimit:10;stroke-dasharray:none;stroke-opacity:1" /><text
       id="text130"
       xml:space="preserve"
       x="-805.59027"
       y="653.89771"
       style="font-size:8.97945px;stroke-width:0.748286"><tspan
         id="tspan130"
         style="font-variant:normal;font-weight:normal;font-size:13.4692px;font-family:'DejaVu Sans';writing-mode:lr-tb;fill:#000000;fill-opacity:1;fill-rule:nonzero;stroke:none;stroke-width:0.748286"
         x="-805.59027"
         dx="0 -0.47937161"
         y="653.89771">Pe=300</tspan></text></g></svg>
